<mxfile host="Electron" agent="Mozilla/5.0 (Windows NT 10.0; Win64; x64) AppleWebKit/537.36 (KHTML, like Gecko) draw.io/28.1.2 Chrome/138.0.7204.243 Electron/37.4.0 Safari/537.36" version="28.1.2">
  <diagram name="PÃ¡gina-1" id="4yl0V0nPSvAQnNA2cZoI">
    <mxGraphModel dx="1055" dy="626" grid="0" gridSize="10" guides="1" tooltips="1" connect="1" arrows="1" fold="1" page="1" pageScale="1" pageWidth="1169" pageHeight="827" background="#ffffff" math="0" shadow="0">
      <root>
        <mxCell id="0" />
        <mxCell id="1" parent="0" />
        <mxCell id="ik52JBesOWgbjSkcogyt-33" value="On Premisses" style="fillColor=none;strokeColor=#5A6C86;dashed=1;verticalAlign=top;fontStyle=0;fontColor=#5A6C86;whiteSpace=wrap;html=1;" vertex="1" parent="1">
          <mxGeometry x="40" y="100" width="210" height="140" as="geometry" />
        </mxCell>
        <mxCell id="ik52JBesOWgbjSkcogyt-3" value="AWS Cloud" style="points=[[0,0],[0.25,0],[0.5,0],[0.75,0],[1,0],[1,0.25],[1,0.5],[1,0.75],[1,1],[0.75,1],[0.5,1],[0.25,1],[0,1],[0,0.75],[0,0.5],[0,0.25]];outlineConnect=0;gradientColor=none;html=1;whiteSpace=wrap;fontSize=12;fontStyle=0;container=1;pointerEvents=0;collapsible=0;recursiveResize=0;shape=mxgraph.aws4.group;grIcon=mxgraph.aws4.group_aws_cloud_alt;strokeColor=#232F3E;fillColor=none;verticalAlign=top;align=left;spacingLeft=30;fontColor=#232F3E;dashed=0;" vertex="1" parent="1">
          <mxGeometry x="290" y="80" width="610" height="370" as="geometry" />
        </mxCell>
        <mxCell id="ik52JBesOWgbjSkcogyt-25" value="Internet &lt;br&gt;Gateway" style="verticalLabelPosition=bottom;html=1;verticalAlign=top;strokeWidth=1;align=center;outlineConnect=0;dashed=0;outlineConnect=0;shape=mxgraph.aws3d.internetGateway;fillColor=#ECECEC;strokeColor=#5E5E5E;aspect=fixed;strokeColor2=#292929;" vertex="1" parent="ik52JBesOWgbjSkcogyt-3">
          <mxGeometry x="20" y="113.75" width="56.76" height="50" as="geometry" />
        </mxCell>
        <mxCell id="ik52JBesOWgbjSkcogyt-30" value="Region" style="points=[[0,0],[0.25,0],[0.5,0],[0.75,0],[1,0],[1,0.25],[1,0.5],[1,0.75],[1,1],[0.75,1],[0.5,1],[0.25,1],[0,1],[0,0.75],[0,0.5],[0,0.25]];outlineConnect=0;gradientColor=none;html=1;whiteSpace=wrap;fontSize=12;fontStyle=0;container=1;pointerEvents=0;collapsible=0;recursiveResize=0;shape=mxgraph.aws4.group;grIcon=mxgraph.aws4.group_region;strokeColor=#00A4A6;fillColor=none;verticalAlign=top;align=left;spacingLeft=30;fontColor=#147EBA;dashed=1;" vertex="1" parent="ik52JBesOWgbjSkcogyt-3">
          <mxGeometry x="170" y="30" width="415" height="290" as="geometry" />
        </mxCell>
        <mxCell id="ik52JBesOWgbjSkcogyt-18" value="Availability Zone 1" style="fillColor=default;strokeColor=#147EBA;dashed=1;verticalAlign=top;fontStyle=0;fontColor=#147EBA;whiteSpace=wrap;html=1;" vertex="1" parent="ik52JBesOWgbjSkcogyt-30">
          <mxGeometry x="32.5" y="32.5" width="350" height="237.5" as="geometry" />
        </mxCell>
        <mxCell id="ik52JBesOWgbjSkcogyt-6" value="E-EBS" style="verticalLabelPosition=bottom;html=1;verticalAlign=top;strokeWidth=1;align=center;outlineConnect=0;dashed=0;outlineConnect=0;shape=mxgraph.aws3d.ebs2;fillColor=#ECECEC;strokeColor=#5E5E5E;aspect=fixed;strokeColor2=#292929;" vertex="1" parent="ik52JBesOWgbjSkcogyt-30">
          <mxGeometry x="300" y="87.5" width="65.17" height="42.5" as="geometry" />
        </mxCell>
        <mxCell id="ik52JBesOWgbjSkcogyt-39" value="" style="edgeStyle=orthogonalEdgeStyle;rounded=0;orthogonalLoop=1;jettySize=auto;html=1;flowAnimation=1;" edge="1" parent="ik52JBesOWgbjSkcogyt-30" source="ik52JBesOWgbjSkcogyt-5" target="ik52JBesOWgbjSkcogyt-32">
          <mxGeometry relative="1" as="geometry" />
        </mxCell>
        <mxCell id="ik52JBesOWgbjSkcogyt-44" value="" style="edgeStyle=orthogonalEdgeStyle;rounded=0;orthogonalLoop=1;jettySize=auto;html=1;flowAnimation=1;" edge="1" parent="ik52JBesOWgbjSkcogyt-30" source="ik52JBesOWgbjSkcogyt-5" target="ik52JBesOWgbjSkcogyt-6">
          <mxGeometry relative="1" as="geometry" />
        </mxCell>
        <mxCell id="ik52JBesOWgbjSkcogyt-55" value="" style="edgeStyle=orthogonalEdgeStyle;rounded=0;orthogonalLoop=1;jettySize=auto;html=1;flowAnimation=1;" edge="1" parent="ik52JBesOWgbjSkcogyt-30" source="ik52JBesOWgbjSkcogyt-5" target="ik52JBesOWgbjSkcogyt-45">
          <mxGeometry relative="1" as="geometry" />
        </mxCell>
        <mxCell id="ik52JBesOWgbjSkcogyt-5" value="" style="verticalLabelPosition=bottom;html=1;verticalAlign=top;strokeWidth=1;align=center;outlineConnect=0;dashed=0;outlineConnect=0;shape=mxgraph.aws3d.application_server;fillColor=#ECECEC;strokeColor=#5E5E5E;aspect=fixed;strokeColor2=#292929;" vertex="1" parent="ik52JBesOWgbjSkcogyt-30">
          <mxGeometry x="190" y="82.5" width="52.07" height="52.5" as="geometry" />
        </mxCell>
        <mxCell id="ik52JBesOWgbjSkcogyt-32" value="D-EBS" style="verticalLabelPosition=bottom;html=1;verticalAlign=top;strokeWidth=1;align=center;outlineConnect=0;dashed=0;outlineConnect=0;shape=mxgraph.aws3d.ebs2;fillColor=#ECECEC;strokeColor=#5E5E5E;aspect=fixed;strokeColor2=#292929;" vertex="1" parent="ik52JBesOWgbjSkcogyt-30">
          <mxGeometry x="70" y="87.5" width="65.17" height="42.5" as="geometry" />
        </mxCell>
        <mxCell id="ik52JBesOWgbjSkcogyt-45" value="RDS" style="outlineConnect=0;dashed=0;verticalLabelPosition=bottom;verticalAlign=top;align=center;html=1;shape=mxgraph.aws3.rds;fillColor=#2E73B8;gradientColor=none;" vertex="1" parent="ik52JBesOWgbjSkcogyt-30">
          <mxGeometry x="191.06" y="180" width="49.96" height="56" as="geometry" />
        </mxCell>
        <mxCell id="ik52JBesOWgbjSkcogyt-51" value="VPC" style="points=[[0,0],[0.25,0],[0.5,0],[0.75,0],[1,0],[1,0.25],[1,0.5],[1,0.75],[1,1],[0.75,1],[0.5,1],[0.25,1],[0,1],[0,0.75],[0,0.5],[0,0.25]];outlineConnect=0;gradientColor=none;html=1;whiteSpace=wrap;fontSize=12;fontStyle=0;container=1;pointerEvents=0;collapsible=0;recursiveResize=0;shape=mxgraph.aws4.group;grIcon=mxgraph.aws4.group_vpc2;strokeColor=#8C4FFF;fillColor=none;verticalAlign=top;align=left;spacingLeft=30;fontColor=#AAB7B8;dashed=0;" vertex="1" parent="ik52JBesOWgbjSkcogyt-3">
          <mxGeometry x="140" y="10" width="460" height="330" as="geometry" />
        </mxCell>
        <mxCell id="ik52JBesOWgbjSkcogyt-54" value="" style="edgeStyle=orthogonalEdgeStyle;rounded=0;orthogonalLoop=1;jettySize=auto;html=1;flowAnimation=1;" edge="1" parent="ik52JBesOWgbjSkcogyt-3" source="ik52JBesOWgbjSkcogyt-25" target="ik52JBesOWgbjSkcogyt-32">
          <mxGeometry relative="1" as="geometry" />
        </mxCell>
        <mxCell id="ik52JBesOWgbjSkcogyt-17" value="" style="edgeStyle=orthogonalEdgeStyle;rounded=0;orthogonalLoop=1;jettySize=auto;html=1;flowAnimation=1;" edge="1" parent="1" target="ik52JBesOWgbjSkcogyt-25">
          <mxGeometry relative="1" as="geometry">
            <mxPoint x="250" y="169.9" as="sourcePoint" />
            <mxPoint x="358" y="220" as="targetPoint" />
          </mxGeometry>
        </mxCell>
        <mxCell id="ik52JBesOWgbjSkcogyt-23" value="User" style="text;html=1;align=center;verticalAlign=middle;resizable=0;points=[];autosize=1;strokeColor=none;fillColor=none;" vertex="1" parent="1">
          <mxGeometry x="70" y="197.4" width="50" height="30" as="geometry" />
        </mxCell>
        <mxCell id="ik52JBesOWgbjSkcogyt-37" value="" style="edgeStyle=orthogonalEdgeStyle;rounded=0;orthogonalLoop=1;jettySize=auto;html=1;flowAnimation=1;" edge="1" parent="1" source="ik52JBesOWgbjSkcogyt-8" target="ik52JBesOWgbjSkcogyt-34">
          <mxGeometry relative="1" as="geometry" />
        </mxCell>
        <mxCell id="ik52JBesOWgbjSkcogyt-8" value="" style="verticalLabelPosition=bottom;html=1;verticalAlign=top;strokeWidth=1;align=center;outlineConnect=0;dashed=0;outlineConnect=0;shape=mxgraph.aws3d.end_user;strokeColor=none;fillColor=#777777;aspect=fixed;" vertex="1" parent="1">
          <mxGeometry x="77.93" y="137.4" width="30.53" height="62.6" as="geometry" />
        </mxCell>
        <mxCell id="ik52JBesOWgbjSkcogyt-34" value="Envia arquivos" style="verticalLabelPosition=bottom;aspect=fixed;html=1;shape=mxgraph.salesforce.web;fillColorStyles=fillColor2,fillColor3,fillColor4;fillColor2=#032d60;fillColor3=#0d9dda;fillColor4=#ffffff;fillColor=none;strokeColor=none;" vertex="1" parent="1">
          <mxGeometry x="170" y="143.7" width="63.29" height="50" as="geometry" />
        </mxCell>
        <mxCell id="ik52JBesOWgbjSkcogyt-56" value="Santander Code Girls 2025 - Arquitetura Desafio-1" style="text;html=1;align=center;verticalAlign=middle;resizable=0;points=[];autosize=1;strokeColor=none;fillColor=none;" vertex="1" parent="1">
          <mxGeometry x="360" y="13" width="287" height="26" as="geometry" />
        </mxCell>
      </root>
    </mxGraphModel>
  </diagram>
</mxfile>
